<svg xmlns="http://www.w3.org/2000/svg" xmlns:xlink="http://www.w3.org/1999/xlink" version="1.1" style="" xml:space="preserve" width="488.85" height="488.85"><rect id="backgroundrect" width="100%" height="100%" x="0" y="0" fill="none" stroke="none"/>
















<g class="currentLayer" style=""><title>Layer 1</title><g id="svg_1" class="selected" fill="#888888" fill-opacity="1">
	<path d="M244.425,98.725c-93.4,0-178.1,51.1-240.6,134.1c-5.1,6.8-5.1,16.3,0,23.1c62.5,83.1,147.2,134.2,240.6,134.2   s178.1-51.1,240.6-134.1c5.1-6.8,5.1-16.3,0-23.1C422.525,149.825,337.825,98.725,244.425,98.725z M251.125,347.025   c-62,3.9-113.2-47.2-109.3-109.3c3.2-51.2,44.7-92.7,95.9-95.9c62-3.9,113.2,47.2,109.3,109.3   C343.725,302.225,302.225,343.725,251.125,347.025z M248.025,299.625c-33.4,2.1-61-25.4-58.8-58.8c1.7-27.6,24.1-49.9,51.7-51.7   c33.4-2.1,61,25.4,58.8,58.8C297.925,275.625,275.525,297.925,248.025,299.625z" id="svg_2" fill="#888888" fill-opacity="1"/>
</g><g id="svg_3">
</g><g id="svg_4">
</g><g id="svg_5">
</g><g id="svg_6">
</g><g id="svg_7">
</g><g id="svg_8">
</g><g id="svg_9">
</g><g id="svg_10">
</g><g id="svg_11">
</g><g id="svg_12">
</g><g id="svg_13">
</g><g id="svg_14">
</g><g id="svg_15">
</g><g id="svg_16">
</g><g id="svg_17">
</g></g></svg>